<svg width="23" height="22" viewBox="0 0 23 22" fill="none" xmlns="http://www.w3.org/2000/svg">
<path d="M6.5 14.25H17.75C18.4375 14.25 19 14.8125 19 15.5C19 16.1875 18.4375 16.75 17.75 16.75H5.25C4.5625 16.75 4 16.1875 4 15.5V3H1.5C0.8125 3 0.25 2.4375 0.25 1.75C0.25 1.0625 0.8125 0.5 1.5 0.5H5.25C5.9375 0.5 6.5 1.0625 6.5 1.75V4.25H22.75L17.75 13H6.5V14.25ZM5.875 18C6.9125 18 7.75 18.8375 7.75 19.875C7.75 20.9125 6.9125 21.75 5.875 21.75C4.8375 21.75 4 20.9125 4 19.875C4 18.8375 4.8375 18 5.875 18ZM17.125 18C18.1625 18 19 18.8375 19 19.875C19 20.9125 18.1625 21.75 17.125 21.75C16.0875 21.75 15.25 20.9125 15.25 19.875C15.25 18.8375 16.0875 18 17.125 18Z" fill="#202020"/>
</svg>
